<svg xmlns:xlink="http://www.w3.org/1999/xlink" xmlns="http://www.w3.org/2000/svg" height="141.733" role="img" width="587.44" viewBox="0 0 587.44 141.733"><title>LEGO® Education</title><g id="LEGO_logo"><path d="M29.308,29.292V169.133h139.84V29.292Z" transform="translate(-28.347 -28.347)" style="" fill="#FFFFFF"></path><path d="M29.308,29.292V169.133h139.84V29.292ZM159.844,87.421a56.138,56.138,0,0,1-2.839,13.412c-4.918,14.611-10.618,23.668-23.822,23.668-3.886,0-10.783-1.033-13.323-7.949l-.6-1.64-1.083,1.372a21.5,21.5,0,0,1-16.831,8.279c-5.039.024-9.086-1.665-11.7-4.883l-.719-.883-.764.844c-2.8,3.088-7.668,4.859-13.364,4.859-4.473,0-8.335-1.52-10.876-4.277l-.693-.754-.72.728c-2.825,2.852-7.276,4.289-12.873,4.157-6.79-.161-10.923-3.95-11.056-10.14-.206-9.543,9.031-29.62,12.853-35.725,2.483-4.078,5.9-6.055,10.438-6.055,3.093,0,5.207.647,6.463,1.977,1.143,1.21,1.37,2.232,1.471,4.686l.131,3.175,1.675-2.7c4.055-6.533,10.774-7.434,17.431-7.434,4.628,0,8.667,1.7,10.289,4.337l.6.97.869-.737a20.95,20.95,0,0,1,13.628-4.522c5.847,0,10.1,1.454,12.633,4.321a8.114,8.114,0,0,1,1.488,2.22l.652,1.366.976-1.155c3.71-4.39,8.779-6.615,15.067-6.615,4.98,0,8.761,1.323,11.236,3.933C159.575,79.531,160.018,84.135,159.844,87.421Z" transform="translate(-28.347 -28.347)" style="" fill="#FFED00"></path><path d="M29.308,29.292V169.133h139.84V29.292ZM163.782,92.786c-.633,5.088-4.073,14.517-5.9,18.285-4.9,10.1-11.453,17.863-24.074,17.863-6.742,0-12.288-2.15-15.531-6.283a25.382,25.382,0,0,1-16.955,6.342,19.813,19.813,0,0,1-12.472-4.013A24.237,24.237,0,0,1,74.9,128.961a20,20,0,0,1-11.8-3.542c-3.529,2.342-8.154,3.5-13.583,3.375-9.034-.213-15.27-5.943-15.449-14.26-.238-11.05,9.07-31.276,13.456-38.28a16.286,16.286,0,0,1,14.43-8.294c6.664,0,9.079,1.905,10.267,4.328,5.14-4.367,11.956-4.617,16.808-4.617,5.356,0,8.715,1.421,11.575,3.7a26.223,26.223,0,0,1,13.871-3.6c6.9,0,12.02,1.6,15.594,5.137,4.169-3.468,9.387-5.05,15.232-5.05,7.724,0,12.807,2.787,15.792,6.94C165.309,80.653,164.557,86.552,163.782,92.786Z" transform="translate(-28.347 -28.347)" style="" fill="#E3000B"></path><path d="M28.347,28.347V170.08H170.079V28.347ZM168.128,30.3V168.128H30.3V30.3Z" transform="translate(-28.347 -28.347)" style="" fill="#181716"></path><path d="M163.1,70.875v-.964h.656c.479,0,.726.168.726.477,0,.247-.16.486-.646.486Zm2.351,2-.408-.707c-.356-.619-.453-.716-.755-.823v-.018a.974.974,0,0,0,.95-.985c0-.558-.355-.983-1.109-.983h-1.753v3.517h.725V71.435h.133c.311,0,.435.036.577.177a3.128,3.128,0,0,1,.478.69l.284.575Zm-1.731-4.5A2.729,2.729,0,1,1,161,71.106,2.731,2.731,0,0,1,163.718,68.38Zm0-.671a3.395,3.395,0,1,0,3.4,3.4A3.388,3.388,0,0,0,163.718,67.709Z" transform="translate(-28.347 -28.347)" style="" fill="#181716"></path><path d="M145.235,71.348c-7.325,0-12.385,2.9-15.812,6.961a9.069,9.069,0,0,0-1.637-2.447c-2.8-3.171-7.314-4.651-13.365-4.651a21.8,21.8,0,0,0-14.261,4.754c-1.779-2.888-6.014-4.8-11.122-4.8-6.674,0-13.947.944-18.261,7.9-.1-2.5-.33-3.827-1.737-5.317-1.71-1.811-4.477-2.283-7.174-2.283-4.912,0-8.606,2.145-11.266,6.514-3.859,6.165-13.212,26.442-13,36.263.136,6.344,4.393,10.917,12.01,11.095,5.952.143,10.62-1.447,13.59-4.445,2.665,2.894,6.731,4.592,11.595,4.592,5.417,0,10.869-1.626,14.088-5.182,2.712,3.334,6.981,5.27,12.468,5.244a22.476,22.476,0,0,0,17.593-8.65c2.258,6.148,7.987,8.588,14.241,8.588,13.709,0,19.731-9.426,24.748-24.333a57.054,57.054,0,0,0,2.889-13.671C161.236,79.639,157.92,71.348,145.235,71.348ZM54.019,108.822c7.093-1.231,8.877,1.333,8.653,3.707-.669,7.109-7.191,8.7-12.853,8.566-4.107-.1-7.8-1.978-7.9-6.747-.179-8.342,8.328-27.64,12.334-34.038,1.849-3.036,4.1-4.538,7.7-4.538,3.406,0,4.25,1.749,4.2,3.843C66.011,85.2,56.981,102.187,54.019,108.822Zm23.1-6.552c-.469,1.27-1.358,3.93-2.076,6.751a23.071,23.071,0,0,1,7.065-.915c3.408.084,5.586,1.5,5.586,4.314,0,6.831-7.551,8.838-12.788,8.838-5.752,0-10.8-3.275-10.8-9.564,0-7.373,4-18.554,7.749-26,4.606-9.145,9.312-10.362,17.418-10.362,3.564,0,7.668,1.524,7.668,4.885,0,4.663-3.95,6.443-7.866,6.666a55.2,55.2,0,0,1-5.786.079,32.846,32.846,0,0,0-2.689,5.524c7.252-1.02,10.327.626,9.1,4.82C88.041,102.973,83.13,103.346,77.116,102.27Zm35.669-17.631a5.163,5.163,0,0,0-4.2,2.584c-2.1,2.951-6.656,14.78-7.365,19.638-.486,3.329.951,4.007,2.522,4.007,2.519,0,5.344-2.666,6.308-7.066,0,0-4.8-.116-3.473-4.369,1.285-4.128,3.721-5.022,7.762-5.188,7.961-.325,7.175,5.554,6.538,8.688-2.069,10.179-9.313,18.357-19.561,18.357-7.017,0-11.372-3.881-11.372-11.037,0-5.1,2.529-13.1,4.534-17.783,4.268-9.968,8.742-16.945,20.143-16.945,6.84,0,12.236,2.457,11.445,8.866-.581,4.7-2.935,7.465-7.211,7.8-1.2.094-6.089-.03-4.466-4.659C114.958,85.912,115.19,84.639,112.785,84.639Zm43.057,8.414a68.837,68.837,0,0,1-6.86,18.392c-4.8,8.634-10.632,9.842-15.723,9.782s-10.83-1.941-10.874-9.8c-.031-5.639,2.4-13.6,4.466-18.816,3.6-9.457,7.277-17.169,18.9-17.031C159.315,75.745,156.9,87.8,155.842,93.052Zm-9.668-5.912c-.144,3.621-5.452,18.1-7.338,21.3-.817,1.385-1.738,2.53-3.4,2.53a2.054,2.054,0,0,1-2.132-2.2c-.105-3.267,5.891-19.652,7.942-22.31a3.185,3.185,0,0,1,3.091-1.619C146.041,84.857,146.216,86.085,146.174,87.14Z" transform="translate(-28.347 -28.347)" style="" fill="#181716"></path></g><g id="education_logo"><rect x="170.06" width="417.38" height="5.669" style="" fill="#006CB7"></rect><rect x="170.06" y="136.062" width="288.281" height="5.669" style="" fill="#006CB7"></rect><rect x="496.146" y="136.062" width="91.292" height="5.669" style="" fill="#006CB7"></rect><path d="M229.95,110.192h11.294q0,10.082-5.9,13.2-4.2,2.235-16.021,2.229-13.239,0-17.716-5.45-3.943-4.73-3.936-18.4,0-13.564,3.76-18.394,4.378-5.722,17.892-5.72,14.139,0,18.262,5.348,3.664,4.722,3.664,20.664H208.881q0,8.238,1.437,10.473,1.884,2.861,8.964,2.861,5.909,0,7.71-.8Q229.951,114.886,229.95,110.192ZM208.881,96.526h21.087q0-6.89-1.793-8.568t-8.884-1.676q-7,0-8.88,2.028Q208.88,90,208.881,96.526Z" transform="translate(-28.347 -28.347)" style="" fill="#181716"></path><path d="M282.828,125.139l.343-7.073h-.343q-3.492,7.564-14.686,7.559-11.817,0-15.572-7.324-2.424-4.726-2.422-18.04,0-11.7,2.962-16.435,3.863-6.163,15.084-6.162,11.306,0,14.185,6.758h.448V57.988h11.217v67.151ZM271.551,86.282q-6.817,0-8.819,3.831-1.365,2.583-1.364,10.153,0,9.614,1.182,12.379,1.906,4.365,9,4.362,8,0,10-4.186,1.279-2.672,1.276-12.556,0-7.657-1.727-10.333Q278.823,86.282,271.551,86.282Z" transform="translate(-28.347 -28.347)" style="" fill="#181716"></path><path d="M346.211,125.139H335.32v-7.248h-.326q-3.232,7.734-14.918,7.733-15.811,0-15.808-13.5V78.154h11.211v29.563q0,5.455,1.261,7.148c1.018,1.43,3.225,2.143,6.643,2.143q6.284,0,8.884-2.721t2.608-9.072l.12-27.061h11.218Z" transform="translate(-28.347 -28.347)" style="" fill="#181716"></path><path d="M386.631,107.243h11.3q0,11.334-5.192,15.169-4.3,3.212-16.2,3.213-13.16,0-17.363-5.537-3.662-4.73-3.668-18.395,0-13.487,3.578-18.223,4.39-5.805,17.454-5.807,11.455,0,15.931,2.946,5.454,3.579,5.459,14.01h-11.3q0-5.4-2.422-7-1.884-1.333-7.711-1.331-6.811,0-8.516,3.206-1.265,2.407-1.256,12.2,0,9.706,1.166,12.021,1.611,3.294,8.606,3.294,6.455,0,8.294-1.731T386.631,107.243Z" transform="translate(-28.347 -28.347)" style="" fill="#181716"></path><path d="M436.494,125.139l.365-5.908h-.267a8.856,8.856,0,0,1-6.083,5.5,30.461,30.461,0,0,1-8.5.892q-9.043,0-12.978-2.854-4.566-3.306-4.563-12.045,0-8.383,4.752-11.686,3.954-2.676,12.832-2.679a33.275,33.275,0,0,1,8.164.713,9.074,9.074,0,0,1,5.92,4.62h.358V95.6q0-6.083-1.523-7.968-1.89-2.325-8.528-2.328-4.488,0-6.28.986-2.6,1.435-2.6,5.557h-11.3q0-9.189,6.094-12.223,3.937-1.964,14.052-1.963,12.081,0,16.293,3.128,5.016,3.671,5.017,14.932v29.417ZM426.045,104q-5.591,0-7.3.811-3.061,1.435-3.06,5.911,0,4.755,2.344,6.094,1.977,1.166,8.018,1.169,5.493,0,7.477-1.074,2.968-1.613,2.971-6.188,0-4.389-3.151-5.819Q431.356,104,426.045,104Z" transform="translate(-28.347 -28.347)" style="" fill="#181716"></path><path d="M453.04,86.77V78.154h5.855V67.581h11.219V78.154h18.095V86.77H470.114v23.994q0,3.658.63,4.727.9,1.519,4.229,1.518,4.225,0,5.223-3.128a30.591,30.591,0,0,0,.441-6.787h9.99q.182,10.023-2.689,13.964-3.321,4.57-12.91,4.567-9.139,0-12.457-2.77-3.675-3.12-3.676-11.965V86.77Z" transform="translate(-28.347 -28.347)" style="" fill="#181716"></path><path d="M510.669,57.988v9.593H499.449V57.988Zm0,20.166v46.985H499.449V78.154Z" transform="translate(-28.347 -28.347)" style="" fill="#181716"></path><path d="M541.7,77.663q14.145,0,18.436,5.186,3.672,4.463,3.672,18.845,0,14.285-3.672,18.753-4.3,5.178-18.436,5.179t-18.441-5.179q-3.672-4.462-3.671-18.753,0-14.385,3.671-18.845Q527.557,77.663,541.7,77.663Zm0,8.62q-7.207,0-9.184,3.027-1.714,2.676-1.708,12.467,0,9.712,1.708,12.295,1.885,2.934,9.184,2.937,7.383,0,9.268-2.937,1.62-2.5,1.628-12.295,0-9.97-1.628-12.467Q548.993,86.288,541.7,86.282Z" transform="translate(-28.347 -28.347)" style="" fill="#181716"></path><path d="M573.3,78.154h11.211v7.07h.358a10.225,10.225,0,0,1,5.913-6.315,24.392,24.392,0,0,1,8.85-1.247q8.94,0,12.518,3.8t3.578,12.74v30.934H604.515V95.394q0-5.269-1.791-7.191t-6.993-1.92q-6.82,0-9.238,3.3-1.98,2.686-1.978,9.74v25.813H573.3Z" transform="translate(-28.347 -28.347)" style="" fill="#181716"></path><path d="M604.679,73.33V67.017H602.32v-.845h5.674v.845h-2.368V73.33Z" transform="translate(-28.347 -28.347)" style="" fill="#181716"></path><path d="M608.937,73.33V66.172h1.426l1.694,5.068q.234.709.342,1.06.121-.39.381-1.147l1.714-4.98h1.274V73.33h-.913V67.339l-2.08,5.991h-.854l-2.07-6.094V73.33Z" transform="translate(-28.347 -28.347)" style="" fill="#181716"></path></g></svg>