<svg xmlns:xlink="http://www.w3.org/1999/xlink" width="48" height="48" viewBox="0 0 48 48" fill="none" xmlns="http://www.w3.org/2000/svg" aria-hidden="true" class="svg-icon" title="PROFILE" tabindex="0"><path d="M16 11V5.90203C16 5.40289 16.4393 5 16.979 5H31.02C31.5607 5 32 5.40289 32 5.90203V11" stroke="#000000" stroke-width="2px" fill="none"></path><path fill-rule="evenodd" clip-rule="evenodd" d="M34.3338 38C38.0158 38 41 35.1552 41 31.6476V17.3524C41 13.8438 38.0158 11 34.3338 11H13.6662C9.98521 11 7 13.8438 7 17.3524V31.6476C7 35.1552 9.98521 38 13.6662 38H34.3338Z" stroke="#000000" stroke-width="2px" fill="none"></path><path fill-rule="evenodd" clip-rule="evenodd" d="M34 38H14V41.6586C14 42.3995 14.6022 43 15.3452 43H32.6548C33.3978 43 34 42.3995 34 41.6586V38Z" stroke="#000000" stroke-width="2px" fill="none"></path><path fill-rule="evenodd" clip-rule="evenodd" d="M20.5 21.5C20.5 22.3288 19.8286 23 18.9995 23C18.1714 23 17.5 22.3288 17.5 21.5C17.5 20.6721 18.1714 20 18.9995 20C19.8286 20 20.5 20.6721 20.5 21.5Z" fill="black"></path><path fill-rule="evenodd" clip-rule="evenodd" d="M30.5 21.5C30.5 22.3288 29.8286 23 28.9995 23C28.1714 23 27.5 22.3288 27.5 21.5C27.5 20.6721 28.1714 20 28.9995 20C29.8286 20 30.5 20.6721 30.5 21.5Z" fill="black"></path><path d="M19 28C19 28 20.3304 30 23.999 30C27.6686 30 29 28 29 28" stroke="#000000" stroke-width="2px" stroke-linecap="round" fill="none"></path></svg>